<?xml version="1.0" ?><svg viewBox="0 0 24 24" xmlns="http://www.w3.org/2000/svg"><title/><g data-name="Layer 2" id="Layer_2"><path d="M17.86,20l-.45-3.17-2.35-2.35L12,11.42,8.94,14.48,6.59,16.83,6.14,20H2v2H22V20ZM11,17h2v2H11Z"/><path d="M13.42,10l3.52,3.52-.53-3.69a4.28,4.28,0,0,0-.82-2L14.15,9.27Z"/><path d="M12.52,8.06l1.54-1.54a4.34,4.34,0,0,0-4.12,0L12,8.58Z"/><path d="M10.58,10l-.73-.73L8.41,7.83a4.28,4.28,0,0,0-.82,2l-.53,3.69,2.36-2.36Z"/><polygon points="3.79 16.79 5.21 18.21 6.59 16.83 7.06 13.52 3.79 16.79"/><path d="M15.59,7.83l4.62-4.62L18.79,1.79,14.06,6.52A4.3,4.3,0,0,1,15.59,7.83Z"/><path d="M9.94,6.52,5.21,1.79,3.79,3.21,8.41,7.83A4.3,4.3,0,0,1,9.94,6.52Z"/><polygon points="18.79 18.21 20.21 16.79 16.94 13.52 17.41 16.83 18.79 18.21"/></g></svg>